HIERARCHY
ROOT mixamorig:Hips
{
	OFFSET -0.000008 104.274872 1.554316
	CHANNELS 6 Xposition Yposition Zposition Xrotation Yrotation Zrotation
	JOINT mixamorig:Spine
	{
		OFFSET -0.000005 10.181595 0.131519
		CHANNELS 6 Xposition Yposition Zposition Xrotation Yrotation Zrotation
		JOINT mixamorig:Spine1
		{
			OFFSET -0.000000 9.893959 -1.470707
			CHANNELS 6 Xposition Yposition Zposition Xrotation Yrotation Zrotation
			JOINT mixamorig:Spine2
			{
				OFFSET -0.000000 9.220757 -1.370641
				CHANNELS 6 Xposition Yposition Zposition Xrotation Yrotation Zrotation
				JOINT mixamorig:Neck
				{
					OFFSET 0.000001 16.740417 -2.049036
					CHANNELS 6 Xposition Yposition Zposition Xrotation Yrotation Zrotation
					JOINT mixamorig:Head
					{
						OFFSET 0.000000 9.617874 1.685006
						CHANNELS 6 Xposition Yposition Zposition Xrotation Yrotation Zrotation
						JOINT mixamorig:HeadTop_End
						{
							OFFSET 0.000002 22.037354 7.501101
							CHANNELS 6 Xposition Yposition Zposition Xrotation Yrotation Zrotation
							End Site
							{
								OFFSET 0.000168 2310.654297 -282.823242
							}
						}
					}
				}
				JOINT mixamorig:RightShoulder
				{
					OFFSET -4.569970 11.014908 -2.160885
					CHANNELS 6 Xposition Yposition Zposition Xrotation Yrotation Zrotation
					JOINT mixamorig:RightArm
					{
						OFFSET -10.592851 -0.524811 -2.232101
						CHANNELS 6 Xposition Yposition Zposition Xrotation Yrotation Zrotation
						JOINT mixamorig:RightForeArm
						{
							OFFSET -27.841511 0.000031 -0.000004
							CHANNELS 6 Xposition Yposition Zposition Xrotation Yrotation Zrotation
							JOINT mixamorig:RightHand
							{
								OFFSET -28.328831 -0.000015 0.000015
								CHANNELS 6 Xposition Yposition Zposition Xrotation Yrotation Zrotation
								JOINT mixamorig:RightHandThumb1
								{
									OFFSET -2.464806 -1.573990 2.681852
									CHANNELS 6 Xposition Yposition Zposition Xrotation Yrotation Zrotation
									JOINT mixamorig:RightHandThumb2
									{
										OFFSET -3.215179 -1.872803 1.924282
										CHANNELS 6 Xposition Yposition Zposition Xrotation Yrotation Zrotation
										JOINT mixamorig:RightHandThumb3
										{
											OFFSET -2.654831 -1.527969 1.512609
											CHANNELS 6 Xposition Yposition Zposition Xrotation Yrotation Zrotation
											JOINT mixamorig:RightHandThumb4
											{
												OFFSET -2.018814 -1.152008 1.108052
												CHANNELS 6 Xposition Yposition Zposition Xrotation Yrotation Zrotation
												End Site
												{
													OFFSET -188.809540 -114.533607 132.431396
												}
											}
										}
									}
								}
								JOINT mixamorig:RightHandIndex1
								{
									OFFSET -9.108284 -0.517868 2.259835
									CHANNELS 6 Xposition Yposition Zposition Xrotation Yrotation Zrotation
									JOINT mixamorig:RightHandIndex2
									{
										OFFSET -3.699989 0.000000 0.001215
										CHANNELS 6 Xposition Yposition Zposition Xrotation Yrotation Zrotation
										JOINT mixamorig:RightHandIndex3
										{
											OFFSET -2.850006 0.000031 -0.000522
											CHANNELS 6 Xposition Yposition Zposition Xrotation Yrotation Zrotation
											JOINT mixamorig:RightHandIndex4
											{
												OFFSET -2.772186 -0.000015 -0.000020
												CHANNELS 6 Xposition Yposition Zposition Xrotation Yrotation Zrotation
												End Site
												{
													OFFSET -277.218445 0.000000 -0.050231
												}
											}
										}
									}
								}
								JOINT mixamorig:RightHandMiddle1
								{
									OFFSET -9.532516 -0.000031 -0.000023
									CHANNELS 6 Xposition Yposition Zposition Xrotation Yrotation Zrotation
									JOINT mixamorig:RightHandMiddle2
									{
										OFFSET -3.700005 -0.000015 0.003713
										CHANNELS 6 Xposition Yposition Zposition Xrotation Yrotation Zrotation
										JOINT mixamorig:RightHandMiddle3
										{
											OFFSET -2.949974 0.000015 -0.002054
											CHANNELS 6 Xposition Yposition Zposition Xrotation Yrotation Zrotation
											JOINT mixamorig:RightHandMiddle4
											{
												OFFSET -2.946640 0.000000 -0.000156
												CHANNELS 6 Xposition Yposition Zposition Xrotation Yrotation Zrotation
												End Site
												{
													OFFSET -294.664337 0.000000 -0.113670
												}
											}
										}
									}
								}
								JOINT mixamorig:RightHandRing1
								{
									OFFSET -9.103600 -0.043076 -1.865134
									CHANNELS 6 Xposition Yposition Zposition Xrotation Yrotation Zrotation
									JOINT mixamorig:RightHandRing2
									{
										OFFSET -3.379288 0.000000 -0.001055
										CHANNELS 6 Xposition Yposition Zposition Xrotation Yrotation Zrotation
										JOINT mixamorig:RightHandRing3
										{
											OFFSET -2.889687 -0.000015 0.000379
											CHANNELS 6 Xposition Yposition Zposition Xrotation Yrotation Zrotation
											JOINT mixamorig:RightHandRing4
											{
												OFFSET -2.638809 -0.000015 0.000941
												CHANNELS 6 Xposition Yposition Zposition Xrotation Yrotation Zrotation
												End Site
												{
													OFFSET -263.880371 0.000000 0.516020
												}
											}
										}
									}
								}
								JOINT mixamorig:RightHandPinky1
								{
									OFFSET -8.076683 -0.486710 -3.806280
									CHANNELS 6 Xposition Yposition Zposition Xrotation Yrotation Zrotation
									JOINT mixamorig:RightHandPinky2
									{
										OFFSET -3.600014 -0.000015 -0.003747
										CHANNELS 6 Xposition Yposition Zposition Xrotation Yrotation Zrotation
										JOINT mixamorig:RightHandPinky3
										{
											OFFSET -2.099983 0.000000 -0.005739
											CHANNELS 6 Xposition Yposition Zposition Xrotation Yrotation Zrotation
											JOINT mixamorig:RightHandPinky4
											{
												OFFSET -2.115768 -0.000031 -0.003680
												CHANNELS 6 Xposition Yposition Zposition Xrotation Yrotation Zrotation
												End Site
												{
													OFFSET -211.577087 0.000000 -0.350686
												}
											}
										}
									}
								}
							}
						}
					}
				}
				JOINT mixamorig:LeftShoulder
				{
					OFFSET 4.570447 11.014725 -2.160855
					CHANNELS 6 Xposition Yposition Zposition Xrotation Yrotation Zrotation
					JOINT mixamorig:LeftArm
					{
						OFFSET 10.592371 -0.524597 -2.232119
						CHANNELS 6 Xposition Yposition Zposition Xrotation Yrotation Zrotation
						JOINT mixamorig:LeftForeArm
						{
							OFFSET 27.841532 -0.000031 0.000026
							CHANNELS 6 Xposition Yposition Zposition Xrotation Yrotation Zrotation
							JOINT mixamorig:LeftHand
							{
								OFFSET 28.328846 -0.000061 0.000022
								CHANNELS 6 Xposition Yposition Zposition Xrotation Yrotation Zrotation
								JOINT mixamorig:LeftHandThumb1
								{
									OFFSET 2.466141 -1.576172 2.681732
									CHANNELS 6 Xposition Yposition Zposition Xrotation Yrotation Zrotation
									JOINT mixamorig:LeftHandThumb2
									{
										OFFSET 3.217812 -1.872070 1.916482
										CHANNELS 6 Xposition Yposition Zposition Xrotation Yrotation Zrotation
										JOINT mixamorig:LeftHandThumb3
										{
											OFFSET 2.656029 -1.528778 1.514513
											CHANNELS 6 Xposition Yposition Zposition Xrotation Yrotation Zrotation
											JOINT mixamorig:LeftHandThumb4
											{
												OFFSET 2.020889 -1.154053 1.115139
												CHANNELS 6 Xposition Yposition Zposition Xrotation Yrotation Zrotation
												End Site
												{
													OFFSET 190.885437 -115.081749 130.048782
												}
											}
										}
									}
								}
								JOINT mixamorig:LeftHandIndex1
								{
									OFFSET 9.109314 -0.518021 2.259871
									CHANNELS 6 Xposition Yposition Zposition Xrotation Yrotation Zrotation
									JOINT mixamorig:LeftHandIndex2
									{
										OFFSET 3.699989 0.000000 -0.000322
										CHANNELS 6 Xposition Yposition Zposition Xrotation Yrotation Zrotation
										JOINT mixamorig:LeftHandIndex3
										{
											OFFSET 2.850006 0.000000 0.000352
											CHANNELS 6 Xposition Yposition Zposition Xrotation Yrotation Zrotation
											JOINT mixamorig:LeftHandIndex4
											{
												OFFSET 2.774864 -0.000031 -0.000027
												CHANNELS 6 Xposition Yposition Zposition Xrotation Yrotation Zrotation
												End Site
												{
													OFFSET 277.486267 0.000000 -0.009857
												}
											}
										}
									}
								}
								JOINT mixamorig:LeftHandMiddle1
								{
									OFFSET 9.533394 0.000061 0.000044
									CHANNELS 6 Xposition Yposition Zposition Xrotation Yrotation Zrotation
									JOINT mixamorig:LeftHandMiddle2
									{
										OFFSET 3.699989 -0.000015 -0.000231
										CHANNELS 6 Xposition Yposition Zposition Xrotation Yrotation Zrotation
										JOINT mixamorig:LeftHandMiddle3
										{
											OFFSET 2.949997 -0.000015 -0.000059
											CHANNELS 6 Xposition Yposition Zposition Xrotation Yrotation Zrotation
											JOINT mixamorig:LeftHandMiddle4
											{
												OFFSET 2.952896 0.000031 0.000063
												CHANNELS 6 Xposition Yposition Zposition Xrotation Yrotation Zrotation
												End Site
												{
													OFFSET 295.289337 0.000000 0.022810
												}
											}
										}
									}
								}
								JOINT mixamorig:LeftHandRing1
								{
									OFFSET 9.104523 -0.042999 -1.865074
									CHANNELS 6 Xposition Yposition Zposition Xrotation Yrotation Zrotation
									JOINT mixamorig:LeftHandRing2
									{
										OFFSET 3.150009 -0.000031 0.000043
										CHANNELS 6 Xposition Yposition Zposition Xrotation Yrotation Zrotation
										JOINT mixamorig:LeftHandRing3
										{
											OFFSET 2.949982 -0.000015 0.000040
											CHANNELS 6 Xposition Yposition Zposition Xrotation Yrotation Zrotation
											JOINT mixamorig:LeftHandRing4
											{
												OFFSET 2.644348 0.000000 0.000057
												CHANNELS 6 Xposition Yposition Zposition Xrotation Yrotation Zrotation
												End Site
												{
													OFFSET 264.434631 0.000000 0.012105
												}
											}
										}
									}
								}
								JOINT mixamorig:LeftHandPinky1
								{
									OFFSET 8.077789 -0.486847 -3.806259
									CHANNELS 6 Xposition Yposition Zposition Xrotation Yrotation Zrotation
									JOINT mixamorig:LeftHandPinky2
									{
										OFFSET 3.599953 0.000031 0.014727
										CHANNELS 6 Xposition Yposition Zposition Xrotation Yrotation Zrotation
										JOINT mixamorig:LeftHandPinky3
										{
											OFFSET 2.100021 0.000015 0.007705
											CHANNELS 6 Xposition Yposition Zposition Xrotation Yrotation Zrotation
											JOINT mixamorig:LeftHandPinky4
											{
												OFFSET 2.125504 0.000031 0.007517
												CHANNELS 6 Xposition Yposition Zposition Xrotation Yrotation Zrotation
												End Site
												{
													OFFSET 212.550781 0.000000 0.625752
												}
											}
										}
									}
								}
							}
						}
					}
				}
			}
		}
	}
	JOINT mixamorig:RightUpLeg
	{
		OFFSET -8.207787 -6.751648 -1.599560
		CHANNELS 6 Xposition Yposition Zposition Xrotation Yrotation Zrotation
		JOINT mixamorig:RightLeg
		{
			OFFSET -0.000002 -44.370117 0.345942
			CHANNELS 6 Xposition Yposition Zposition Xrotation Yrotation Zrotation
			JOINT mixamorig:RightFoot
			{
				OFFSET 0.000003 -44.423679 -3.043532
				CHANNELS 6 Xposition Yposition Zposition Xrotation Yrotation Zrotation
				JOINT mixamorig:RightToeBase
				{
					OFFSET -0.000002 -8.728671 10.710558
					CHANNELS 6 Xposition Yposition Zposition Xrotation Yrotation Zrotation
					JOINT mixamorig:RightToe_End
					{
						OFFSET -0.000001 -0.000679 9.278119
						CHANNELS 6 Xposition Yposition Zposition Xrotation Yrotation Zrotation
						End Site
						{
							OFFSET 0.000000 -0.067690 927.812134
						}
					}
				}
			}
		}
	}
	JOINT mixamorig:LeftUpLeg
	{
		OFFSET 8.207793 -6.751686 -1.599556
		CHANNELS 6 Xposition Yposition Zposition Xrotation Yrotation Zrotation
		JOINT mixamorig:LeftLeg
		{
			OFFSET -0.000004 -44.370014 0.346954
			CHANNELS 6 Xposition Yposition Zposition Xrotation Yrotation Zrotation
			JOINT mixamorig:LeftFoot
			{
				OFFSET -0.000001 -44.423672 -3.044401
				CHANNELS 6 Xposition Yposition Zposition Xrotation Yrotation Zrotation
				JOINT mixamorig:LeftToeBase
				{
					OFFSET -0.000002 -8.728669 10.710558
					CHANNELS 6 Xposition Yposition Zposition Xrotation Yrotation Zrotation
					JOINT mixamorig:LeftToe_End
					{
						OFFSET -0.000003 -0.000679 9.278133
						CHANNELS 6 Xposition Yposition Zposition Xrotation Yrotation Zrotation
						End Site
						{
							OFFSET 0.000000 -0.068021 927.813477
						}
					}
				}
			}
		}
	}
}
MOTION
Frames: 3
Frame Time: 0.033333
0.000006 104.270477 1.554256 0.000010 0.000003 -0.000113 -0.000005 10.181587 0.131522 0.000001 -0.000003 0.000084 -0.000000 9.893967 -1.470711 0.000001 0.000000 -0.000000 -0.000000 9.220802 -1.370642 0.000000 -0.000000 -0.000000 0.000001 16.740433 -2.049030 0.000000 -0.000000 -0.000000 0.000000 9.617859 1.685014 0.000000 0.000000 0.000000 0.000002 22.037384 7.501101 0.000000 -0.000000 0.000000 -4.569968 11.014880 -2.160881 0.000008 0.000001 -0.000038 -10.592793 -0.524842 -2.231757 67.557210 64.621062 -45.860018 -27.841486 0.000000 0.000576 55.924643 109.619571 -73.946592 -28.328829 0.000022 0.000028 -0.000324 -0.000046 0.000007 -2.464523 -1.574194 2.682232 42.506689 -132.473445 104.199146 -3.214927 -1.873064 1.924537 82.701829 -136.429832 135.783833 -2.654674 -1.528288 1.512857 92.579362 -150.600808 146.091476 -2.018831 -1.152004 1.108066 -0.000002 -0.000001 0.000004 -9.108344 -0.517958 2.260277 -101.517033 17.688809 21.601032 -3.699944 0.000077 0.001774 -139.351828 27.484720 66.866855 -2.849840 0.000147 0.000051 -164.528056 20.353245 105.766634 -2.772156 0.000001 -0.000016 -0.000001 0.000003 0.000000 -9.532537 -0.000189 0.000375 -95.125178 11.943491 13.149968 -3.699960 0.000063 0.004310 -140.219194 20.861566 53.866219 -2.949779 0.000050 -0.001479 -177.303296 15.696058 160.654683 -2.946625 0.000002 -0.000167 0.000000 -0.000001 0.000000 -9.103645 -0.043212 -1.864752 -90.067102 10.750997 10.735045 -3.379271 0.000011 -0.000472 -136.924789 14.713563 36.250389 -2.889522 0.000231 0.000977 -169.034246 9.441780 81.444070 -2.638811 -0.000018 0.000948 -0.000000 0.000001 -0.000002 -8.076711 -0.486876 -3.805981 -79.816266 10.503688 8.711076 -3.600005 -0.000157 -0.003234 -121.398635 7.532417 12.914669 -2.099974 0.000058 -0.005167 -158.106011 2.791449 13.460104 -2.115768 -0.000041 -0.003682 -0.000001 -0.000000 -0.000003 4.570446 11.014691 -2.160851 -0.000018 0.000010 -0.000021 10.592516 -0.524531 -2.232400 66.660666 -62.865287 43.794131 27.841717 -0.000071 -0.000098 247.071138 -73.255801 263.435642 28.328831 -0.000013 0.000039 0.000023 -0.000090 0.000000 2.466169 -1.576156 2.681878 46.364267 133.062317 -107.764081 3.217831 -1.871979 1.916523 70.614566 137.867000 -128.061976 2.656071 -1.528744 1.514624 256.932428 29.835895 42.865540 2.020903 -1.154060 1.115146 0.000000 0.000006 0.000001 9.109241 -0.517834 2.260098 255.674936 -21.954115 -28.035541 3.699769 0.000158 -0.000131 39.313695 -141.699296 91.620588 2.849776 0.000064 0.000474 11.479047 -148.942493 39.769985 2.774909 -0.000027 -0.000050 -0.000003 -0.000002 0.000001 9.533347 0.000267 0.000298 258.627900 -17.025305 -20.710506 3.699781 0.000216 -0.000007 218.878289 -29.780694 -73.989841 2.949794 0.000030 0.000049 4.669441 -158.192700 23.910168 2.952876 -0.000018 0.000062 0.000001 0.000000 0.000002 9.104490 -0.042824 -1.864841 262.356254 -14.189451 -16.196996 3.149852 0.000378 0.000247 217.775268 -14.953965 -41.976007 2.949563 0.000272 0.000145 184.885284 -6.983825 -110.081995 2.644325 0.000052 0.000081 -0.000000 -0.000000 -0.000003 8.077754 -0.486674 -3.806007 -95.482117 -11.670959 -13.234604 3.599882 0.000360 0.014934 221.938855 -7.557451 -20.401002 2.099908 0.000429 0.007808 189.932261 -1.764666 -23.647606 2.125499 -0.000016 0.007529 -0.000001 -0.000000 -0.000001 -8.207786 -6.751667 -1.599560 -0.077001 -0.000003 0.000080 -0.000002 -44.370110 0.345938 0.153719 -0.000000 -0.000000 0.000000 -44.423679 -3.043532 -0.076700 0.000000 -0.000002 -0.000006 -8.728667 10.710559 -0.000009 -0.000000 -0.000000 -0.000001 -0.000679 9.278123 0.000000 -0.000000 -0.000000 8.207792 -6.751710 -1.599556 -0.074518 -0.000003 0.000081 -0.000002 -44.370014 0.346960 0.148822 0.000002 0.000000 -0.000001 -44.423664 -3.044403 -0.074314 0.000000 -0.000002 -0.000004 -8.728671 10.710558 0.000007 -0.000000 -0.000000 0.000000 -0.000680 9.278137 -0.000000 0.000000 -0.000001 
0.000006 104.270477 1.554256 0.000010 0.000003 -0.000113 -0.000005 10.181587 0.131522 0.000001 -0.000003 0.000084 -0.000000 9.893967 -1.470711 0.000001 0.000000 -0.000000 -0.000000 9.220802 -1.370642 0.000000 -0.000000 -0.000000 0.000001 16.740433 -2.049030 0.000000 -0.000000 -0.000000 0.000000 9.617859 1.685014 0.000000 0.000000 0.000000 0.000002 22.037384 7.501101 0.000000 -0.000000 0.000000 -4.569968 11.014880 -2.160881 0.000008 0.000001 -0.000038 -10.592791 -0.524836 -2.231753 67.853941 64.683326 -46.140274 -27.841496 0.000016 0.000569 56.411188 109.841224 -74.737303 -28.328829 0.000022 0.000020 -0.000321 -0.000045 0.000007 -2.464506 -1.574164 2.682245 36.906511 -132.551514 99.173527 -3.214921 -1.873049 1.924552 79.354094 -135.669414 133.185643 -2.654641 -1.528296 1.512886 84.441991 -145.761141 139.663134 -2.018830 -1.151995 1.108068 -0.000007 0.000004 0.000003 -9.108330 -0.517986 2.260263 -101.646083 16.151864 19.785605 -3.700008 0.000021 0.001768 -131.718941 24.979470 52.590957 -2.849977 0.000115 0.000078 -145.998067 18.154107 55.176163 -2.772172 -0.000015 -0.000026 0.000002 0.000001 0.000000 -9.532532 -0.000225 0.000348 -91.024606 10.180452 10.457546 -3.700025 -0.000021 0.004281 -125.667571 16.297222 31.089355 -2.949971 0.000072 -0.001474 -146.145148 13.290442 41.884062 -2.946624 0.000001 -0.000146 0.000001 0.000002 -0.000000 -9.103648 -0.043206 -1.864767 -87.430096 10.279324 9.803028 -3.379270 -0.000046 -0.000515 -125.790788 11.267120 21.838401 -2.889697 0.000063 0.000974 -147.143954 7.204759 24.206961 -2.638811 -0.000001 0.000944 -0.000003 0.000002 0.000001 -8.076706 -0.486879 -3.805988 -81.179360 9.886664 8.391786 -3.599997 -0.000158 -0.003247 -117.403357 4.409564 6.776719 -2.099985 -0.000063 -0.005210 -144.953717 0.977401 2.473781 -2.115772 -0.000026 -0.003683 -0.000000 -0.000001 -0.000005 4.570446 11.014691 -2.160851 -0.000018 0.000010 -0.000021 10.592524 -0.524530 -2.232392 66.664805 -62.880511 43.809096 27.841717 -0.000070 -0.000097 247.383031 -73.177854 263.852776 28.328831 -0.000013 0.000035 0.000022 -0.000090 0.000001 2.466187 -1.576116 2.681893 44.293978 136.606201 -108.228138 3.217824 -1.872001 1.916530 67.954529 136.802569 -125.621591 2.656056 -1.528765 1.514603 251.572260 33.999418 48.188112 2.020887 -1.154068 1.115153 0.000006 0.000004 0.000004 9.109253 -0.517809 2.260101 253.886218 -17.703604 -23.392090 3.699844 0.000212 -0.000116 55.498996 -151.519496 128.489642 2.849848 0.000287 0.000563 43.198331 -156.944852 125.490314 2.774899 -0.000010 -0.000023 0.000003 -0.000002 -0.000002 9.533363 0.000245 0.000293 258.848815 -14.510438 -17.598923 3.699870 0.000270 0.000026 235.937137 -21.376020 -39.131585 2.949874 0.000307 0.000134 41.300173 -162.815536 136.303105 2.952868 -0.000045 0.000054 0.000003 0.000003 -0.000001 9.104494 -0.042815 -1.864837 262.018952 -13.628883 -15.650661 3.149903 0.000365 0.000269 230.809304 -13.665639 -28.321979 2.949863 0.000412 0.000220 212.318561 -8.514315 -28.818849 2.644317 0.000017 0.000040 0.000005 -0.000002 0.000000 8.077755 -0.486696 -3.806000 -93.888552 -12.684457 -13.946071 3.599875 0.000366 0.014954 232.119280 -8.228880 -17.417546 2.099933 0.000398 0.007862 208.619508 -3.770369 -16.030618 2.125508 -0.000014 0.007507 0.000004 -0.000003 -0.000001 -8.207786 -6.751667 -1.599560 -0.077001 -0.000003 0.000080 -0.000002 -44.370110 0.345938 0.153719 -0.000000 -0.000000 0.000000 -44.423679 -3.043532 -0.076700 0.000000 -0.000002 -0.000006 -8.728667 10.710559 -0.000009 -0.000000 -0.000000 -0.000001 -0.000679 9.278123 0.000000 -0.000000 -0.000000 8.207792 -6.751710 -1.599556 -0.074518 -0.000003 0.000081 -0.000002 -44.370014 0.346960 0.148822 0.000002 0.000000 -0.000001 -44.423664 -3.044403 -0.074314 0.000000 -0.000002 -0.000004 -8.728671 10.710558 0.000007 -0.000000 -0.000000 0.000000 -0.000680 9.278137 -0.000000 0.000000 -0.000001 
0.000006 104.270477 1.554256 0.000010 0.000003 -0.000113 -0.000005 10.181587 0.131522 0.000001 -0.000003 0.000084 -0.000000 9.893967 -1.470711 0.000001 0.000000 -0.000000 -0.000000 9.220802 -1.370642 0.000000 -0.000000 -0.000000 0.000001 16.740433 -2.049030 0.000000 -0.000000 -0.000000 0.000000 9.617859 1.685014 0.000000 0.000000 0.000000 0.000002 22.037384 7.501101 0.000000 -0.000000 0.000000 -4.569968 11.014880 -2.160881 0.000008 0.000001 -0.000038 -10.592795 -0.524838 -2.231751 68.345489 64.931350 -46.722722 -27.841486 0.000005 0.000579 56.443129 110.442977 -75.393663 -28.328835 0.000020 0.000022 -0.000327 -0.000046 0.000006 -2.464505 -1.574150 2.682265 35.998683 -133.021158 98.645554 -3.214910 -1.873049 1.924525 80.047215 -136.101314 133.842502 -2.654642 -1.528274 1.512898 79.766836 -143.779826 135.937731 -2.018838 -1.152017 1.108063 0.000001 -0.000003 0.000004 -9.108331 -0.517979 2.260285 -103.403033 15.097392 19.084440 -3.700020 0.000004 0.001768 -127.081134 22.025946 42.699672 -2.850010 0.000060 0.000031 -137.408967 16.161404 40.026090 -2.772170 -0.000012 -0.000034 0.000001 0.000004 -0.000000 -9.532537 -0.000213 0.000334 -86.197991 9.871427 9.327527 -3.700037 -0.000065 0.004219 -115.757800 14.801590 23.293851 -2.949998 -0.000011 -0.001503 -132.214485 11.748511 26.141663 -2.946627 -0.000001 -0.000155 -0.000000 -0.000001 -0.000002 -9.103643 -0.043204 -1.864767 -85.311194 11.393833 10.477031 -3.379292 -0.000101 -0.000545 -119.910036 9.513241 16.393535 -2.889699 -0.000005 0.000940 -138.192199 5.001220 13.137396 -2.638809 -0.000015 0.000937 -0.000000 0.000001 -0.000000 -8.076702 -0.486856 -3.805943 -85.719940 11.451573 10.543258 -3.600006 -0.000159 -0.003265 -114.377310 3.381543 4.787738 -2.099993 -0.000101 -0.005212 -135.972100 -0.224159 -1.056656 -2.115759 -0.000057 -0.003680 -0.000001 0.000003 -0.000004 4.570446 11.014691 -2.160851 -0.000018 0.000010 -0.000021 10.592515 -0.524531 -2.232396 66.811763 -62.878558 43.918417 27.841719 -0.000066 -0.000086 247.632005 -73.144045 264.155900 28.328831 -0.000011 0.000039 0.000023 -0.000090 0.000000 2.466177 -1.576129 2.681893 46.683076 137.894102 -111.060160 3.217827 -1.871987 1.916538 69.556099 137.773221 -127.260331 2.656057 -1.528742 1.514618 249.176612 34.724002 50.140186 2.020887 -1.154060 1.115149 0.000002 0.000003 0.000001 9.109246 -0.517820 2.260105 251.670068 -16.732131 -23.012202 3.699841 0.000234 -0.000085 57.780511 -154.645373 135.634443 2.849877 0.000287 0.000584 50.165137 -159.115814 137.018185 2.774888 -0.000045 -0.000032 0.000003 -0.000002 -0.000000 9.533346 0.000246 0.000283 258.338928 -14.505211 -17.750519 3.699877 0.000251 0.000019 237.503053 -19.412157 -34.627611 2.949889 0.000292 0.000160 46.065634 -164.422365 144.327676 2.952867 -0.000031 0.000071 -0.000002 0.000003 -0.000001 9.104476 -0.042825 -1.864821 260.323754 -13.764540 -16.280019 3.149902 0.000349 0.000276 231.631987 -13.255619 -27.014286 2.949877 0.000390 0.000237 216.455402 -8.469113 -25.345710 2.644318 0.000016 0.000058 0.000003 0.000001 -0.000000 8.077735 -0.486689 -3.806027 -94.479329 -13.167840 -14.605897 3.599888 0.000327 0.014973 234.717374 -8.643434 -17.260344 2.099947 0.000399 0.007897 214.070915 -4.436298 -15.514445 2.125511 0.000015 0.007514 -0.000005 -0.000000 0.000000 -8.207786 -6.751667 -1.599560 -0.077001 -0.000003 0.000080 -0.000002 -44.370110 0.345938 0.153719 -0.000000 -0.000000 0.000000 -44.423679 -3.043532 -0.076700 0.000000 -0.000002 -0.000006 -8.728667 10.710559 -0.000009 -0.000000 -0.000000 -0.000001 -0.000679 9.278123 0.000000 -0.000000 -0.000000 8.207792 -6.751710 -1.599556 -0.074518 -0.000003 0.000081 -0.000002 -44.370014 0.346960 0.148822 0.000002 0.000000 -0.000001 -44.423664 -3.044403 -0.074314 0.000000 -0.000002 -0.000004 -8.728671 10.710558 0.000007 -0.000000 -0.000000 0.000000 -0.000680 9.278137 -0.000000 0.000000 -0.000001 
